<?xml version="1.0" encoding="UTF-8" standalone="no"?>
<!DOCTYPE svg PUBLIC "-//W3C//DTD SVG 1.1//EN"
 "http://www.w3.org/Graphics/SVG/1.1/DTD/svg11.dtd">
<!-- Generated by graphviz version 2.30.1 (20150306.0020)
 -->
<!-- Title: snakemake_dag Pages: 1 -->
<svg width="2309pt" height="476pt"
 viewBox="0.00 0.00 2308.97 476.00" xmlns="http://www.w3.org/2000/svg" xmlns:xlink="http://www.w3.org/1999/xlink">
<g id="graph0" class="graph" transform="scale(1 1) rotate(0) translate(4 472)">
<title>snakemake_dag</title>
<polygon fill="white" stroke="white" points="-4,5 -4,-472 2305.97,-472 2305.97,5 -4,5"/>
<!-- 0 -->
<g id="node1" class="node"><title>0</title>
<path fill="none" stroke="#567bd8" stroke-width="2" d="M1271.97,-36C1271.97,-36 1241.97,-36 1241.97,-36 1235.97,-36 1229.97,-30 1229.97,-24 1229.97,-24 1229.97,-12 1229.97,-12 1229.97,-6 1235.97,-0 1241.97,-0 1241.97,-0 1271.97,-0 1271.97,-0 1277.97,-0 1283.97,-6 1283.97,-12 1283.97,-12 1283.97,-24 1283.97,-24 1283.97,-30 1277.97,-36 1271.97,-36"/>
<text text-anchor="middle" x="1256.97" y="-15.5" font-family="sans" font-size="10.00">all</text>
</g>
<!-- 1 -->
<g id="node2" class="node"><title>1</title>
<path fill="none" stroke="#68d856" stroke-width="2" d="M1271.97,-108C1271.97,-108 1241.97,-108 1241.97,-108 1235.97,-108 1229.97,-102 1229.97,-96 1229.97,-96 1229.97,-84 1229.97,-84 1229.97,-78 1235.97,-72 1241.97,-72 1241.97,-72 1271.97,-72 1271.97,-72 1277.97,-72 1283.97,-78 1283.97,-84 1283.97,-84 1283.97,-96 1283.97,-96 1283.97,-102 1277.97,-108 1271.97,-108"/>
<text text-anchor="middle" x="1256.97" y="-87.5" font-family="sans" font-size="10.00">report</text>
</g>
<!-- 1&#45;&gt;0 -->
<g id="edge1" class="edge"><title>1&#45;&gt;0</title>
<path fill="none" stroke="grey" stroke-width="2" d="M1256.97,-71.6966C1256.97,-63.9827 1256.97,-54.7125 1256.97,-46.1124"/>
<polygon fill="grey" stroke="grey" points="1260.47,-46.1043 1256.97,-36.1043 1253.47,-46.1044 1260.47,-46.1043"/>
</g>
<!-- 2 -->
<g id="node3" class="node"><title>2</title>
<path fill="none" stroke="#56d86b" stroke-width="2" d="M1171.97,-180C1171.97,-180 1127.97,-180 1127.97,-180 1121.97,-180 1115.97,-174 1115.97,-168 1115.97,-168 1115.97,-156 1115.97,-156 1115.97,-150 1121.97,-144 1127.97,-144 1127.97,-144 1171.97,-144 1171.97,-144 1177.97,-144 1183.97,-150 1183.97,-156 1183.97,-156 1183.97,-168 1183.97,-168 1183.97,-174 1177.97,-180 1171.97,-180"/>
<text text-anchor="middle" x="1149.97" y="-159.5" font-family="sans" font-size="10.00">plot_busco</text>
</g>
<!-- 2&#45;&gt;1 -->
<g id="edge2" class="edge"><title>2&#45;&gt;1</title>
<path fill="none" stroke="grey" stroke-width="2" d="M1176.14,-143.876C1190,-134.808 1207.21,-123.552 1222.18,-113.759"/>
<polygon fill="grey" stroke="grey" points="1224.24,-116.593 1230.69,-108.19 1220.41,-110.735 1224.24,-116.593"/>
</g>
<!-- 3 -->
<g id="node4" class="node"><title>3</title>
<path fill="none" stroke="#56a9d8" stroke-width="2" d="M600.969,-180C600.969,-180 500.969,-180 500.969,-180 494.969,-180 488.969,-174 488.969,-168 488.969,-168 488.969,-156 488.969,-156 488.969,-150 494.969,-144 500.969,-144 500.969,-144 600.969,-144 600.969,-144 606.969,-144 612.969,-150 612.969,-156 612.969,-156 612.969,-168 612.969,-168 612.969,-174 606.969,-180 600.969,-180"/>
<text text-anchor="middle" x="550.969" y="-159.5" font-family="sans" font-size="10.00">plot_transrate_contigs</text>
</g>
<!-- 3&#45;&gt;1 -->
<g id="edge3" class="edge"><title>3&#45;&gt;1</title>
<path fill="none" stroke="grey" stroke-width="2" d="M613.003,-154.849C755.919,-140.679 1104.89,-106.079 1219.68,-94.6968"/>
<polygon fill="grey" stroke="grey" points="1220.13,-98.1697 1229.74,-93.7 1219.44,-91.2039 1220.13,-98.1697"/>
</g>
<!-- 4 -->
<g id="node5" class="node"><title>4</title>
<path fill="none" stroke="#d8a456" stroke-width="2" d="M2052.97,-180C2052.97,-180 2020.97,-180 2020.97,-180 2014.97,-180 2008.97,-174 2008.97,-168 2008.97,-168 2008.97,-156 2008.97,-156 2008.97,-150 2014.97,-144 2020.97,-144 2020.97,-144 2052.97,-144 2052.97,-144 2058.97,-144 2064.97,-150 2064.97,-156 2064.97,-156 2064.97,-168 2064.97,-168 2064.97,-174 2058.97,-180 2052.97,-180"/>
<text text-anchor="middle" x="2036.97" y="-159.5" font-family="sans" font-size="10.00">versions</text>
</g>
<!-- 4&#45;&gt;1 -->
<g id="edge4" class="edge"><title>4&#45;&gt;1</title>
<path fill="none" stroke="grey" stroke-width="2" d="M2008.66,-146.768C2005.77,-145.69 2002.84,-144.737 1999.97,-144 1864.26,-109.211 1426.07,-95.3456 1294.6,-91.9055"/>
<polygon fill="grey" stroke="grey" points="1294.34,-88.3978 1284.25,-91.6399 1294.16,-95.3955 1294.34,-88.3978"/>
</g>
<!-- 5 -->
<g id="node6" class="node"><title>5</title>
<path fill="none" stroke="#56d892" stroke-width="2" d="M1343.22,-396C1343.22,-396 1288.72,-396 1288.72,-396 1282.72,-396 1276.72,-390 1276.72,-384 1276.72,-384 1276.72,-372 1276.72,-372 1276.72,-366 1282.72,-360 1288.72,-360 1288.72,-360 1343.22,-360 1343.22,-360 1349.22,-360 1355.22,-366 1355.22,-372 1355.22,-372 1355.22,-384 1355.22,-384 1355.22,-390 1349.22,-396 1343.22,-396"/>
<text text-anchor="middle" x="1315.97" y="-375.5" font-family="sans" font-size="10.00">fish_4_genes</text>
</g>
<!-- 5&#45;&gt;1 -->
<g id="edge5" class="edge"><title>5&#45;&gt;1</title>
<path fill="none" stroke="grey" stroke-width="2" d="M1355.23,-368.404C1370.12,-365.387 1387.27,-362.205 1402.97,-360 1449.02,-353.531 1788.53,-358.27 1819.97,-324 1830.78,-312.21 1822.08,-303.86 1819.97,-288 1811.23,-222.273 1831.53,-186.895 1780.97,-144 1743.99,-112.626 1408.42,-96.8529 1294.56,-92.3705"/>
<polygon fill="grey" stroke="grey" points="1294.38,-88.8609 1284.25,-91.9718 1294.11,-95.8557 1294.38,-88.8609"/>
</g>
<!-- 6 -->
<g id="node7" class="node"><title>6</title>
<path fill="none" stroke="#56a9d8" stroke-width="2" d="M871.969,-180C871.969,-180 771.969,-180 771.969,-180 765.969,-180 759.969,-174 759.969,-168 759.969,-168 759.969,-156 759.969,-156 759.969,-150 765.969,-144 771.969,-144 771.969,-144 871.969,-144 871.969,-144 877.969,-144 883.969,-150 883.969,-156 883.969,-156 883.969,-168 883.969,-168 883.969,-174 877.969,-180 871.969,-180"/>
<text text-anchor="middle" x="821.969" y="-159.5" font-family="sans" font-size="10.00">plot_transrate_contigs</text>
</g>
<!-- 6&#45;&gt;1 -->
<g id="edge6" class="edge"><title>6&#45;&gt;1</title>
<path fill="none" stroke="grey" stroke-width="2" d="M884.294,-150.971C976.098,-136.198 1144.86,-109.04 1219.63,-97.0087"/>
<polygon fill="grey" stroke="grey" points="1220.64,-100.391 1229.96,-95.3466 1219.53,-93.4799 1220.64,-100.391"/>
</g>
<!-- 7 -->
<g id="node8" class="node"><title>7</title>
<path fill="none" stroke="#56a9d8" stroke-width="2" d="M1978.97,-180C1978.97,-180 1878.97,-180 1878.97,-180 1872.97,-180 1866.97,-174 1866.97,-168 1866.97,-168 1866.97,-156 1866.97,-156 1866.97,-150 1872.97,-144 1878.97,-144 1878.97,-144 1978.97,-144 1978.97,-144 1984.97,-144 1990.97,-150 1990.97,-156 1990.97,-156 1990.97,-168 1990.97,-168 1990.97,-174 1984.97,-180 1978.97,-180"/>
<text text-anchor="middle" x="1928.97" y="-159.5" font-family="sans" font-size="10.00">plot_transrate_contigs</text>
</g>
<!-- 7&#45;&gt;1 -->
<g id="edge7" class="edge"><title>7&#45;&gt;1</title>
<path fill="none" stroke="grey" stroke-width="2" d="M1866.88,-146.415C1862.19,-145.526 1857.51,-144.707 1852.97,-144 1643.19,-111.355 1388.5,-97.0544 1294.31,-92.6141"/>
<polygon fill="grey" stroke="grey" points="1294.3,-89.1099 1284.15,-92.1442 1293.98,-96.1024 1294.3,-89.1099"/>
</g>
<!-- 8 -->
<g id="node9" class="node"><title>8</title>
<path fill="none" stroke="#56a9d8" stroke-width="2" d="M1540.97,-180C1540.97,-180 1440.97,-180 1440.97,-180 1434.97,-180 1428.97,-174 1428.97,-168 1428.97,-168 1428.97,-156 1428.97,-156 1428.97,-150 1434.97,-144 1440.97,-144 1440.97,-144 1540.97,-144 1540.97,-144 1546.97,-144 1552.97,-150 1552.97,-156 1552.97,-156 1552.97,-168 1552.97,-168 1552.97,-174 1546.97,-180 1540.97,-180"/>
<text text-anchor="middle" x="1490.97" y="-159.5" font-family="sans" font-size="10.00">plot_transrate_contigs</text>
</g>
<!-- 8&#45;&gt;1 -->
<g id="edge8" class="edge"><title>8&#45;&gt;1</title>
<path fill="none" stroke="grey" stroke-width="2" d="M1434.03,-143.966C1390.5,-130.945 1331.76,-113.372 1294.11,-102.111"/>
<polygon fill="grey" stroke="grey" points="1294.67,-98.624 1284.08,-99.1111 1292.66,-105.33 1294.67,-98.624"/>
</g>
<!-- 9 -->
<g id="node10" class="node"><title>9</title>
<path fill="none" stroke="#56a9d8" stroke-width="2" d="M1066.97,-180C1066.97,-180 966.969,-180 966.969,-180 960.969,-180 954.969,-174 954.969,-168 954.969,-168 954.969,-156 954.969,-156 954.969,-150 960.969,-144 966.969,-144 966.969,-144 1066.97,-144 1066.97,-144 1072.97,-144 1078.97,-150 1078.97,-156 1078.97,-156 1078.97,-168 1078.97,-168 1078.97,-174 1072.97,-180 1066.97,-180"/>
<text text-anchor="middle" x="1016.97" y="-159.5" font-family="sans" font-size="10.00">plot_transrate_contigs</text>
</g>
<!-- 9&#45;&gt;1 -->
<g id="edge9" class="edge"><title>9&#45;&gt;1</title>
<path fill="none" stroke="grey" stroke-width="2" d="M1075.37,-143.966C1120.46,-130.815 1181.47,-113.021 1220.02,-101.776"/>
<polygon fill="grey" stroke="grey" points="1221.17,-105.086 1229.79,-98.9259 1219.21,-98.366 1221.17,-105.086"/>
</g>
<!-- 10 -->
<g id="node11" class="node"><title>10</title>
<path fill="none" stroke="#56a9d8" stroke-width="2" d="M344.969,-180C344.969,-180 244.969,-180 244.969,-180 238.969,-180 232.969,-174 232.969,-168 232.969,-168 232.969,-156 232.969,-156 232.969,-150 238.969,-144 244.969,-144 244.969,-144 344.969,-144 344.969,-144 350.969,-144 356.969,-150 356.969,-156 356.969,-156 356.969,-168 356.969,-168 356.969,-174 350.969,-180 344.969,-180"/>
<text text-anchor="middle" x="294.969" y="-159.5" font-family="sans" font-size="10.00">plot_transrate_contigs</text>
</g>
<!-- 10&#45;&gt;1 -->
<g id="edge10" class="edge"><title>10&#45;&gt;1</title>
<path fill="none" stroke="grey" stroke-width="2" d="M357.026,-154.93C392.927,-151.511 438.977,-147.281 479.969,-144 764.277,-121.244 1107.61,-100.004 1219.66,-93.2325"/>
<polygon fill="grey" stroke="grey" points="1220,-96.7184 1229.77,-92.6228 1219.58,-89.7311 1220,-96.7184"/>
</g>
<!-- 11 -->
<g id="node12" class="node"><title>11</title>
<path fill="none" stroke="#56a9d8" stroke-width="2" d="M1759.97,-180C1759.97,-180 1659.97,-180 1659.97,-180 1653.97,-180 1647.97,-174 1647.97,-168 1647.97,-168 1647.97,-156 1647.97,-156 1647.97,-150 1653.97,-144 1659.97,-144 1659.97,-144 1759.97,-144 1759.97,-144 1765.97,-144 1771.97,-150 1771.97,-156 1771.97,-156 1771.97,-168 1771.97,-168 1771.97,-174 1765.97,-180 1759.97,-180"/>
<text text-anchor="middle" x="1709.97" y="-159.5" font-family="sans" font-size="10.00">plot_transrate_contigs</text>
</g>
<!-- 11&#45;&gt;1 -->
<g id="edge11" class="edge"><title>11&#45;&gt;1</title>
<path fill="none" stroke="grey" stroke-width="2" d="M1647.93,-151.414C1552.47,-136.662 1372.43,-108.842 1294.5,-96.7996"/>
<polygon fill="grey" stroke="grey" points="1294.62,-93.2763 1284.2,-95.208 1293.55,-100.194 1294.62,-93.2763"/>
</g>
<!-- 12 -->
<g id="node13" class="node"><title>12</title>
<path fill="none" stroke="#56a9d8" stroke-width="2" d="M1351.97,-180C1351.97,-180 1251.97,-180 1251.97,-180 1245.97,-180 1239.97,-174 1239.97,-168 1239.97,-168 1239.97,-156 1239.97,-156 1239.97,-150 1245.97,-144 1251.97,-144 1251.97,-144 1351.97,-144 1351.97,-144 1357.97,-144 1363.97,-150 1363.97,-156 1363.97,-156 1363.97,-168 1363.97,-168 1363.97,-174 1357.97,-180 1351.97,-180"/>
<text text-anchor="middle" x="1301.97" y="-159.5" font-family="sans" font-size="10.00">plot_transrate_contigs</text>
</g>
<!-- 12&#45;&gt;1 -->
<g id="edge12" class="edge"><title>12&#45;&gt;1</title>
<path fill="none" stroke="grey" stroke-width="2" d="M1290.85,-143.697C1285.61,-135.559 1279.27,-125.689 1273.49,-116.701"/>
<polygon fill="grey" stroke="grey" points="1276.32,-114.623 1267.96,-108.104 1270.43,-118.409 1276.32,-114.623"/>
</g>
<!-- 13 -->
<g id="node14" class="node"><title>13</title>
<path fill="none" stroke="#56d0d8" stroke-width="2" d="M1223.22,-252C1223.22,-252 1076.72,-252 1076.72,-252 1070.72,-252 1064.72,-246 1064.72,-240 1064.72,-240 1064.72,-228 1064.72,-228 1064.72,-222 1070.72,-216 1076.72,-216 1076.72,-216 1223.22,-216 1223.22,-216 1229.22,-216 1235.22,-222 1235.22,-228 1235.22,-228 1235.22,-240 1235.22,-240 1235.22,-246 1229.22,-252 1223.22,-252"/>
<text text-anchor="middle" x="1149.97" y="-231.5" font-family="sans" font-size="10.00">summarize_transrate_assembly</text>
</g>
<!-- 13&#45;&gt;1 -->
<g id="edge13" class="edge"><title>13&#45;&gt;1</title>
<path fill="none" stroke="grey" stroke-width="2" d="M1164.56,-215.538C1173.01,-205.301 1183.76,-192.051 1192.97,-180 1209.06,-158.948 1226.57,-134.472 1239.21,-116.522"/>
<polygon fill="grey" stroke="grey" points="1242.11,-118.475 1244.99,-108.278 1236.38,-114.455 1242.11,-118.475"/>
</g>
<!-- 13&#45;&gt;2 -->
<g id="edge25" class="edge"><title>13&#45;&gt;2</title>
<path fill="none" stroke="grey" stroke-width="2" d="M1149.97,-215.697C1149.97,-207.983 1149.97,-198.712 1149.97,-190.112"/>
<polygon fill="grey" stroke="grey" points="1153.47,-190.104 1149.97,-180.104 1146.47,-190.104 1153.47,-190.104"/>
</g>
<!-- 14 -->
<g id="node15" class="node"><title>14</title>
<path fill="none" stroke="#d85656" stroke-width="2" d="M381.969,-252C381.969,-252 323.969,-252 323.969,-252 317.969,-252 311.969,-246 311.969,-240 311.969,-240 311.969,-228 311.969,-228 311.969,-222 317.969,-216 323.969,-216 323.969,-216 381.969,-216 381.969,-216 387.969,-216 393.969,-222 393.969,-228 393.969,-228 393.969,-240 393.969,-240 393.969,-246 387.969,-252 381.969,-252"/>
<text text-anchor="middle" x="352.969" y="-231.5" font-family="sans" font-size="10.00">gather_busco</text>
</g>
<!-- 14&#45;&gt;2 -->
<g id="edge14" class="edge"><title>14&#45;&gt;2</title>
<path fill="none" stroke="grey" stroke-width="2" d="M394.176,-229.621C437.448,-226.102 507.477,-220.485 567.969,-216 798.999,-198.869 859.58,-218.821 1087.97,-180 1093.82,-179.006 1099.91,-177.691 1105.9,-176.232"/>
<polygon fill="grey" stroke="grey" points="1107,-179.562 1115.81,-173.671 1105.25,-172.785 1107,-179.562"/>
</g>
<!-- 15 -->
<g id="node16" class="node"><title>15</title>
<path fill="none" stroke="#d85656" stroke-width="2" d="M97.9686,-252C97.9686,-252 39.9686,-252 39.9686,-252 33.9686,-252 27.9686,-246 27.9686,-240 27.9686,-240 27.9686,-228 27.9686,-228 27.9686,-222 33.9686,-216 39.9686,-216 39.9686,-216 97.9686,-216 97.9686,-216 103.969,-216 109.969,-222 109.969,-228 109.969,-228 109.969,-240 109.969,-240 109.969,-246 103.969,-252 97.9686,-252"/>
<text text-anchor="middle" x="68.9686" y="-231.5" font-family="sans" font-size="10.00">gather_busco</text>
</g>
<!-- 15&#45;&gt;2 -->
<g id="edge15" class="edge"><title>15&#45;&gt;2</title>
<path fill="none" stroke="grey" stroke-width="2" d="M110.048,-228.346C145.273,-224.508 197.4,-219.194 242.969,-216 617.945,-189.714 716.584,-238.067 1087.97,-180 1093.83,-179.083 1099.93,-177.814 1105.92,-176.378"/>
<polygon fill="grey" stroke="grey" points="1107.02,-179.711 1115.83,-173.837 1105.28,-172.93 1107.02,-179.711"/>
</g>
<!-- 16 -->
<g id="node17" class="node"><title>16</title>
<path fill="none" stroke="#d85656" stroke-width="2" d="M1951.97,-252C1951.97,-252 1893.97,-252 1893.97,-252 1887.97,-252 1881.97,-246 1881.97,-240 1881.97,-240 1881.97,-228 1881.97,-228 1881.97,-222 1887.97,-216 1893.97,-216 1893.97,-216 1951.97,-216 1951.97,-216 1957.97,-216 1963.97,-222 1963.97,-228 1963.97,-228 1963.97,-240 1963.97,-240 1963.97,-246 1957.97,-252 1951.97,-252"/>
<text text-anchor="middle" x="1922.97" y="-231.5" font-family="sans" font-size="10.00">gather_busco</text>
</g>
<!-- 16&#45;&gt;2 -->
<g id="edge16" class="edge"><title>16&#45;&gt;2</title>
<path fill="none" stroke="grey" stroke-width="2" d="M1881.93,-230.006C1738.04,-219.488 1263.32,-184.614 1230.97,-180 1218.86,-178.272 1205.84,-175.813 1193.86,-173.3"/>
<polygon fill="grey" stroke="grey" points="1194.6,-169.879 1184.08,-171.191 1193.12,-176.721 1194.6,-169.879"/>
</g>
<!-- 17 -->
<g id="node18" class="node"><title>17</title>
<path fill="none" stroke="#d85656" stroke-width="2" d="M1499.97,-252C1499.97,-252 1441.97,-252 1441.97,-252 1435.97,-252 1429.97,-246 1429.97,-240 1429.97,-240 1429.97,-228 1429.97,-228 1429.97,-222 1435.97,-216 1441.97,-216 1441.97,-216 1499.97,-216 1499.97,-216 1505.97,-216 1511.97,-222 1511.97,-228 1511.97,-228 1511.97,-240 1511.97,-240 1511.97,-246 1505.97,-252 1499.97,-252"/>
<text text-anchor="middle" x="1470.97" y="-231.5" font-family="sans" font-size="10.00">gather_busco</text>
</g>
<!-- 17&#45;&gt;2 -->
<g id="edge17" class="edge"><title>17&#45;&gt;2</title>
<path fill="none" stroke="grey" stroke-width="2" d="M1429.91,-218.529C1426.9,-217.625 1423.89,-216.771 1420.97,-216 1337.86,-194.113 1315.25,-196.828 1230.97,-180 1219.09,-177.628 1206.25,-174.975 1194.37,-172.483"/>
<polygon fill="grey" stroke="grey" points="1194.73,-168.983 1184.23,-170.345 1193.29,-175.832 1194.73,-168.983"/>
</g>
<!-- 18 -->
<g id="node19" class="node"><title>18</title>
<path fill="none" stroke="#b6d856" stroke-width="2" d="M1196.97,-324C1196.97,-324 1122.97,-324 1122.97,-324 1116.97,-324 1110.97,-318 1110.97,-312 1110.97,-312 1110.97,-300 1110.97,-300 1110.97,-294 1116.97,-288 1122.97,-288 1122.97,-288 1196.97,-288 1196.97,-288 1202.97,-288 1208.97,-294 1208.97,-300 1208.97,-300 1208.97,-312 1208.97,-312 1208.97,-318 1202.97,-324 1196.97,-324"/>
<text text-anchor="middle" x="1159.97" y="-303.5" font-family="sans" font-size="10.00">gather_transrate</text>
</g>
<!-- 18&#45;&gt;2 -->
<g id="edge18" class="edge"><title>18&#45;&gt;2</title>
<path fill="none" stroke="grey" stroke-width="2" d="M1204.04,-287.983C1219.52,-279.62 1235.23,-267.855 1243.97,-252 1251.7,-237.989 1252.04,-229.815 1243.97,-216 1232.97,-197.179 1212.56,-184.519 1193.55,-176.306"/>
<polygon fill="grey" stroke="grey" points="1194.68,-172.987 1184.1,-172.517 1192.08,-179.485 1194.68,-172.987"/>
</g>
<!-- 18&#45;&gt;12 -->
<g id="edge46" class="edge"><title>18&#45;&gt;12</title>
<path fill="none" stroke="grey" stroke-width="2" d="M1207.44,-287.889C1225.96,-279.363 1246.24,-267.507 1260.97,-252 1277.55,-234.538 1288.33,-209.174 1294.66,-189.987"/>
<polygon fill="grey" stroke="grey" points="1298.03,-190.909 1297.64,-180.322 1291.35,-188.843 1298.03,-190.909"/>
</g>
<!-- 18&#45;&gt;13 -->
<g id="edge51" class="edge"><title>18&#45;&gt;13</title>
<path fill="none" stroke="grey" stroke-width="2" d="M1157.5,-287.697C1156.39,-279.983 1155.07,-270.712 1153.84,-262.112"/>
<polygon fill="grey" stroke="grey" points="1157.29,-261.509 1152.41,-252.104 1150.36,-262.499 1157.29,-261.509"/>
</g>
<!-- 19 -->
<g id="node20" class="node"><title>19</title>
<path fill="none" stroke="#d85656" stroke-width="2" d="M1399.97,-252C1399.97,-252 1341.97,-252 1341.97,-252 1335.97,-252 1329.97,-246 1329.97,-240 1329.97,-240 1329.97,-228 1329.97,-228 1329.97,-222 1335.97,-216 1341.97,-216 1341.97,-216 1399.97,-216 1399.97,-216 1405.97,-216 1411.97,-222 1411.97,-228 1411.97,-228 1411.97,-240 1411.97,-240 1411.97,-246 1405.97,-252 1399.97,-252"/>
<text text-anchor="middle" x="1370.97" y="-231.5" font-family="sans" font-size="10.00">gather_busco</text>
</g>
<!-- 19&#45;&gt;2 -->
<g id="edge19" class="edge"><title>19&#45;&gt;2</title>
<path fill="none" stroke="grey" stroke-width="2" d="M1329.92,-219.998C1291.25,-207.751 1233.51,-189.461 1193.92,-176.922"/>
<polygon fill="grey" stroke="grey" points="1194.86,-173.549 1184.27,-173.865 1192.75,-180.222 1194.86,-173.549"/>
</g>
<!-- 20 -->
<g id="node21" class="node"><title>20</title>
<path fill="none" stroke="#b6d856" stroke-width="2" d="M1798.97,-324C1798.97,-324 1724.97,-324 1724.97,-324 1718.97,-324 1712.97,-318 1712.97,-312 1712.97,-312 1712.97,-300 1712.97,-300 1712.97,-294 1718.97,-288 1724.97,-288 1724.97,-288 1798.97,-288 1798.97,-288 1804.97,-288 1810.97,-294 1810.97,-300 1810.97,-300 1810.97,-312 1810.97,-312 1810.97,-318 1804.97,-324 1798.97,-324"/>
<text text-anchor="middle" x="1761.97" y="-303.5" font-family="sans" font-size="10.00">gather_transrate</text>
</g>
<!-- 20&#45;&gt;2 -->
<g id="edge20" class="edge"><title>20&#45;&gt;2</title>
<path fill="none" stroke="grey" stroke-width="2" d="M1731.22,-287.875C1692.53,-267.181 1623.45,-233.023 1559.97,-216 1417.89,-177.901 1376.23,-203.134 1230.97,-180 1219.01,-178.095 1206.14,-175.601 1194.26,-173.112"/>
<polygon fill="grey" stroke="grey" points="1194.63,-169.613 1184.12,-170.942 1193.17,-176.458 1194.63,-169.613"/>
</g>
<!-- 20&#45;&gt;11 -->
<g id="edge45" class="edge"><title>20&#45;&gt;11</title>
<path fill="none" stroke="grey" stroke-width="2" d="M1755.7,-287.871C1746.76,-263.457 1730.27,-218.426 1719.72,-189.635"/>
<polygon fill="grey" stroke="grey" points="1722.99,-188.376 1716.26,-180.189 1716.42,-190.783 1722.99,-188.376"/>
</g>
<!-- 20&#45;&gt;13 -->
<g id="edge49" class="edge"><title>20&#45;&gt;13</title>
<path fill="none" stroke="grey" stroke-width="2" d="M1712.76,-289.882C1709.8,-289.189 1706.85,-288.553 1703.97,-288 1536.05,-255.808 1491.15,-268.457 1320.97,-252 1296.57,-249.64 1270.21,-247.044 1245.67,-244.605"/>
<polygon fill="grey" stroke="grey" points="1245.93,-241.115 1235.64,-243.608 1245.24,-248.08 1245.93,-241.115"/>
</g>
<!-- 21 -->
<g id="node22" class="node"><title>21</title>
<path fill="none" stroke="#d85656" stroke-width="2" d="M2073.97,-252C2073.97,-252 2015.97,-252 2015.97,-252 2009.97,-252 2003.97,-246 2003.97,-240 2003.97,-240 2003.97,-228 2003.97,-228 2003.97,-222 2009.97,-216 2015.97,-216 2015.97,-216 2073.97,-216 2073.97,-216 2079.97,-216 2085.97,-222 2085.97,-228 2085.97,-228 2085.97,-240 2085.97,-240 2085.97,-246 2079.97,-252 2073.97,-252"/>
<text text-anchor="middle" x="2044.97" y="-231.5" font-family="sans" font-size="10.00">gather_busco</text>
</g>
<!-- 21&#45;&gt;2 -->
<g id="edge21" class="edge"><title>21&#45;&gt;2</title>
<path fill="none" stroke="grey" stroke-width="2" d="M2003.72,-221.891C1993.72,-219.579 1983.02,-217.418 1972.97,-216 1646.04,-169.871 1558.45,-222.04 1230.97,-180 1218.83,-178.442 1205.81,-176.039 1193.83,-173.527"/>
<polygon fill="grey" stroke="grey" points="1194.57,-170.106 1184.05,-171.406 1193.08,-176.947 1194.57,-170.106"/>
</g>
<!-- 22 -->
<g id="node23" class="node"><title>22</title>
<path fill="none" stroke="#d85656" stroke-width="2" d="M827.969,-252C827.969,-252 769.969,-252 769.969,-252 763.969,-252 757.969,-246 757.969,-240 757.969,-240 757.969,-228 757.969,-228 757.969,-222 763.969,-216 769.969,-216 769.969,-216 827.969,-216 827.969,-216 833.969,-216 839.969,-222 839.969,-228 839.969,-228 839.969,-240 839.969,-240 839.969,-246 833.969,-252 827.969,-252"/>
<text text-anchor="middle" x="798.969" y="-231.5" font-family="sans" font-size="10.00">gather_busco</text>
</g>
<!-- 22&#45;&gt;2 -->
<g id="edge22" class="edge"><title>22&#45;&gt;2</title>
<path fill="none" stroke="grey" stroke-width="2" d="M839.985,-222.811C850.086,-220.441 860.895,-218.023 870.969,-216 966.819,-196.756 992.478,-200.954 1087.97,-180 1093.77,-178.728 1099.83,-177.251 1105.8,-175.709"/>
<polygon fill="grey" stroke="grey" points="1106.93,-179.031 1115.69,-173.077 1105.13,-172.266 1106.93,-179.031"/>
</g>
<!-- 23 -->
<g id="node24" class="node"><title>23</title>
<path fill="none" stroke="#b6d856" stroke-width="2" d="M2288.97,-324C2288.97,-324 2214.97,-324 2214.97,-324 2208.97,-324 2202.97,-318 2202.97,-312 2202.97,-312 2202.97,-300 2202.97,-300 2202.97,-294 2208.97,-288 2214.97,-288 2214.97,-288 2288.97,-288 2288.97,-288 2294.97,-288 2300.97,-294 2300.97,-300 2300.97,-300 2300.97,-312 2300.97,-312 2300.97,-318 2294.97,-324 2288.97,-324"/>
<text text-anchor="middle" x="2251.97" y="-303.5" font-family="sans" font-size="10.00">gather_transrate</text>
</g>
<!-- 23&#45;&gt;2 -->
<g id="edge23" class="edge"><title>23&#45;&gt;2</title>
<path fill="none" stroke="grey" stroke-width="2" d="M2229.85,-287.887C2200.77,-266.518 2147.23,-230.954 2094.97,-216 1910.22,-163.138 1421.65,-203.817 1230.97,-180 1218.83,-178.483 1205.8,-176.095 1193.82,-173.582"/>
<polygon fill="grey" stroke="grey" points="1194.56,-170.161 1184.05,-171.459 1193.08,-177.002 1194.56,-170.161"/>
</g>
<!-- 23&#45;&gt;7 -->
<g id="edge41" class="edge"><title>23&#45;&gt;7</title>
<path fill="none" stroke="grey" stroke-width="2" d="M2242.67,-287.907C2230.58,-267.41 2207.47,-233.618 2177.97,-216 2111.38,-176.233 2081.18,-195.718 2001.27,-180.132"/>
<polygon fill="grey" stroke="grey" points="2001.78,-176.663 1991.28,-178.051 2000.35,-183.516 2001.78,-176.663"/>
</g>
<!-- 23&#45;&gt;13 -->
<g id="edge47" class="edge"><title>23&#45;&gt;13</title>
<path fill="none" stroke="grey" stroke-width="2" d="M2202.8,-289.701C2199.83,-289.053 2196.87,-288.477 2193.97,-288 1810.8,-224.919 1708.34,-279.22 1320.97,-252 1296.51,-250.282 1270.14,-247.915 1245.59,-245.493"/>
<polygon fill="grey" stroke="grey" points="1245.86,-242.002 1235.56,-244.49 1245.17,-248.967 1245.86,-242.002"/>
</g>
<!-- 24 -->
<g id="node25" class="node"><title>24</title>
<path fill="none" stroke="#b6d856" stroke-width="2" d="M228.969,-324C228.969,-324 154.969,-324 154.969,-324 148.969,-324 142.969,-318 142.969,-312 142.969,-312 142.969,-300 142.969,-300 142.969,-294 148.969,-288 154.969,-288 154.969,-288 228.969,-288 228.969,-288 234.969,-288 240.969,-294 240.969,-300 240.969,-300 240.969,-312 240.969,-312 240.969,-318 234.969,-324 228.969,-324"/>
<text text-anchor="middle" x="191.969" y="-303.5" font-family="sans" font-size="10.00">gather_transrate</text>
</g>
<!-- 24&#45;&gt;2 -->
<g id="edge24" class="edge"><title>24&#45;&gt;2</title>
<path fill="none" stroke="grey" stroke-width="2" d="M206.799,-287.758C226.353,-266.427 262.989,-231.087 302.969,-216 466.351,-154.347 915.481,-207.256 1087.97,-180 1093.83,-179.074 1099.93,-177.799 1105.92,-176.36"/>
<polygon fill="grey" stroke="grey" points="1107.01,-179.693 1115.83,-173.817 1105.27,-172.913 1107.01,-179.693"/>
</g>
<!-- 24&#45;&gt;10 -->
<g id="edge44" class="edge"><title>24&#45;&gt;10</title>
<path fill="none" stroke="grey" stroke-width="2" d="M200.163,-287.8C209.366,-269.261 225.337,-239.284 242.969,-216 250.552,-205.985 259.898,-195.915 268.564,-187.282"/>
<polygon fill="grey" stroke="grey" points="271.217,-189.585 275.945,-180.104 266.336,-184.567 271.217,-189.585"/>
</g>
<!-- 24&#45;&gt;13 -->
<g id="edge53" class="edge"><title>24&#45;&gt;13</title>
<path fill="none" stroke="grey" stroke-width="2" d="M241.13,-295.1C256.112,-292.406 272.666,-289.752 287.969,-288 589.974,-253.433 667.816,-274.375 970.969,-252 998.021,-250.003 1027.33,-247.403 1054.25,-244.84"/>
<polygon fill="grey" stroke="grey" points="1054.83,-248.301 1064.44,-243.86 1054.16,-241.333 1054.83,-248.301"/>
</g>
<!-- 25 -->
<g id="node26" class="node"><title>25</title>
<path fill="none" stroke="#b6d856" stroke-width="2" d="M1080.97,-324C1080.97,-324 1006.97,-324 1006.97,-324 1000.97,-324 994.969,-318 994.969,-312 994.969,-312 994.969,-300 994.969,-300 994.969,-294 1000.97,-288 1006.97,-288 1006.97,-288 1080.97,-288 1080.97,-288 1086.97,-288 1092.97,-294 1092.97,-300 1092.97,-300 1092.97,-312 1092.97,-312 1092.97,-318 1086.97,-324 1080.97,-324"/>
<text text-anchor="middle" x="1043.97" y="-303.5" font-family="sans" font-size="10.00">gather_transrate</text>
</g>
<!-- 25&#45;&gt;2 -->
<g id="edge26" class="edge"><title>25&#45;&gt;2</title>
<path fill="none" stroke="grey" stroke-width="2" d="M1041.74,-287.684C1040.2,-268.497 1040.54,-237.44 1054.97,-216 1067.15,-197.906 1087.67,-185.351 1106.53,-177.02"/>
<polygon fill="grey" stroke="grey" points="1107.99,-180.203 1115.9,-173.153 1105.32,-173.733 1107.99,-180.203"/>
</g>
<!-- 25&#45;&gt;9 -->
<g id="edge43" class="edge"><title>25&#45;&gt;9</title>
<path fill="none" stroke="grey" stroke-width="2" d="M1035.1,-287.823C1030.31,-277.681 1024.81,-264.431 1021.97,-252 1017.34,-231.761 1016.19,-208.292 1016.14,-190.538"/>
<polygon fill="grey" stroke="grey" points="1019.65,-190.332 1016.24,-180.301 1012.65,-190.269 1019.65,-190.332"/>
</g>
<!-- 25&#45;&gt;13 -->
<g id="edge50" class="edge"><title>25&#45;&gt;13</title>
<path fill="none" stroke="grey" stroke-width="2" d="M1069.9,-287.876C1083.63,-278.808 1100.68,-267.552 1115.5,-257.759"/>
<polygon fill="grey" stroke="grey" points="1117.52,-260.621 1123.94,-252.19 1113.67,-254.78 1117.52,-260.621"/>
</g>
<!-- 26 -->
<g id="node27" class="node"><title>26</title>
<path fill="none" stroke="#b6d856" stroke-width="2" d="M512.969,-324C512.969,-324 438.969,-324 438.969,-324 432.969,-324 426.969,-318 426.969,-312 426.969,-312 426.969,-300 426.969,-300 426.969,-294 432.969,-288 438.969,-288 438.969,-288 512.969,-288 512.969,-288 518.969,-288 524.969,-294 524.969,-300 524.969,-300 524.969,-312 524.969,-312 524.969,-318 518.969,-324 512.969,-324"/>
<text text-anchor="middle" x="475.969" y="-303.5" font-family="sans" font-size="10.00">gather_transrate</text>
</g>
<!-- 26&#45;&gt;2 -->
<g id="edge27" class="edge"><title>26&#45;&gt;2</title>
<path fill="none" stroke="grey" stroke-width="2" d="M508.592,-287.914C550.003,-267.092 624.22,-232.633 691.969,-216 863.598,-173.863 914.071,-211.489 1087.97,-180 1093.81,-178.943 1099.9,-177.591 1105.88,-176.113"/>
<polygon fill="grey" stroke="grey" points="1106.99,-179.442 1115.78,-173.536 1105.22,-172.667 1106.99,-179.442"/>
</g>
<!-- 26&#45;&gt;3 -->
<g id="edge31" class="edge"><title>26&#45;&gt;3</title>
<path fill="none" stroke="grey" stroke-width="2" d="M485.015,-287.871C497.967,-263.35 521.902,-218.032 537.099,-189.259"/>
<polygon fill="grey" stroke="grey" points="540.314,-190.666 541.89,-180.189 534.125,-187.397 540.314,-190.666"/>
</g>
<!-- 26&#45;&gt;13 -->
<g id="edge48" class="edge"><title>26&#45;&gt;13</title>
<path fill="none" stroke="grey" stroke-width="2" d="M525.165,-289.842C528.129,-289.159 531.08,-288.537 533.969,-288 725.571,-252.41 776.85,-269.213 970.969,-252 997.989,-249.604 1027.29,-246.876 1054.21,-244.317"/>
<polygon fill="grey" stroke="grey" points="1054.78,-247.779 1064.4,-243.346 1054.12,-240.81 1054.78,-247.779"/>
</g>
<!-- 27 -->
<g id="node28" class="node"><title>27</title>
<path fill="none" stroke="#d85656" stroke-width="2" d="M949.969,-252C949.969,-252 891.969,-252 891.969,-252 885.969,-252 879.969,-246 879.969,-240 879.969,-240 879.969,-228 879.969,-228 879.969,-222 885.969,-216 891.969,-216 891.969,-216 949.969,-216 949.969,-216 955.969,-216 961.969,-222 961.969,-228 961.969,-228 961.969,-240 961.969,-240 961.969,-246 955.969,-252 949.969,-252"/>
<text text-anchor="middle" x="920.969" y="-231.5" font-family="sans" font-size="10.00">gather_busco</text>
</g>
<!-- 27&#45;&gt;2 -->
<g id="edge28" class="edge"><title>27&#45;&gt;2</title>
<path fill="none" stroke="grey" stroke-width="2" d="M962.174,-220.405C1002.83,-207.978 1064.74,-189.052 1106.25,-176.365"/>
<polygon fill="grey" stroke="grey" points="1107.27,-179.711 1115.81,-173.441 1105.23,-173.017 1107.27,-179.711"/>
</g>
<!-- 28 -->
<g id="node29" class="node"><title>28</title>
<path fill="none" stroke="#b6d856" stroke-width="2" d="M628.969,-324C628.969,-324 554.969,-324 554.969,-324 548.969,-324 542.969,-318 542.969,-312 542.969,-312 542.969,-300 542.969,-300 542.969,-294 548.969,-288 554.969,-288 554.969,-288 628.969,-288 628.969,-288 634.969,-288 640.969,-294 640.969,-300 640.969,-300 640.969,-312 640.969,-312 640.969,-318 634.969,-324 628.969,-324"/>
<text text-anchor="middle" x="591.969" y="-303.5" font-family="sans" font-size="10.00">gather_transrate</text>
</g>
<!-- 28&#45;&gt;2 -->
<g id="edge29" class="edge"><title>28&#45;&gt;2</title>
<path fill="none" stroke="grey" stroke-width="2" d="M628.184,-287.933C648.452,-278.038 673.989,-264.996 695.969,-252 720.48,-237.507 722.231,-225.797 748.969,-216 891.233,-163.871 939.088,-208.125 1087.97,-180 1093.8,-178.898 1099.88,-177.521 1105.86,-176.03"/>
<polygon fill="grey" stroke="grey" points="1106.98,-179.357 1115.77,-173.442 1105.21,-172.584 1106.98,-179.357"/>
</g>
<!-- 28&#45;&gt;6 -->
<g id="edge40" class="edge"><title>28&#45;&gt;6</title>
<path fill="none" stroke="grey" stroke-width="2" d="M611.122,-287.756C632.985,-268.633 670.342,-237.634 705.969,-216 725.738,-203.996 748.687,-192.964 768.93,-184.109"/>
<polygon fill="grey" stroke="grey" points="770.516,-187.237 778.32,-180.071 767.751,-180.806 770.516,-187.237"/>
</g>
<!-- 28&#45;&gt;13 -->
<g id="edge52" class="edge"><title>28&#45;&gt;13</title>
<path fill="none" stroke="grey" stroke-width="2" d="M641.18,-289.923C644.141,-289.219 647.086,-288.57 649.969,-288 688.515,-280.372 920.193,-257.255 1054.25,-244.211"/>
<polygon fill="grey" stroke="grey" points="1054.91,-247.663 1064.53,-243.212 1054.23,-240.696 1054.91,-247.663"/>
</g>
<!-- 29 -->
<g id="node30" class="node"><title>29</title>
<path fill="none" stroke="#b6d856" stroke-width="2" d="M1682.97,-324C1682.97,-324 1608.97,-324 1608.97,-324 1602.97,-324 1596.97,-318 1596.97,-312 1596.97,-312 1596.97,-300 1596.97,-300 1596.97,-294 1602.97,-288 1608.97,-288 1608.97,-288 1682.97,-288 1682.97,-288 1688.97,-288 1694.97,-294 1694.97,-300 1694.97,-300 1694.97,-312 1694.97,-312 1694.97,-318 1688.97,-324 1682.97,-324"/>
<text text-anchor="middle" x="1645.97" y="-303.5" font-family="sans" font-size="10.00">gather_transrate</text>
</g>
<!-- 29&#45;&gt;2 -->
<g id="edge30" class="edge"><title>29&#45;&gt;2</title>
<path fill="none" stroke="grey" stroke-width="2" d="M1621.61,-287.869C1606.92,-277.516 1587.84,-264.036 1570.97,-252 1548.68,-236.098 1546.46,-225.998 1520.97,-216 1400.06,-168.579 1359.08,-201.357 1230.97,-180 1219.02,-178.008 1206.16,-175.484 1194.28,-172.995"/>
<polygon fill="grey" stroke="grey" points="1194.65,-169.496 1184.14,-170.831 1193.19,-176.342 1194.65,-169.496"/>
</g>
<!-- 29&#45;&gt;8 -->
<g id="edge42" class="edge"><title>29&#45;&gt;8</title>
<path fill="none" stroke="grey" stroke-width="2" d="M1633.71,-287.665C1619.82,-268.741 1595.86,-238.18 1570.97,-216 1558.42,-204.817 1543.33,-194.216 1529.66,-185.476"/>
<polygon fill="grey" stroke="grey" points="1531.26,-182.346 1520.92,-180.013 1527.55,-188.281 1531.26,-182.346"/>
</g>
<!-- 29&#45;&gt;13 -->
<g id="edge54" class="edge"><title>29&#45;&gt;13</title>
<path fill="none" stroke="grey" stroke-width="2" d="M1596.75,-289.974C1593.79,-289.257 1590.85,-288.592 1587.97,-288 1524.58,-274.968 1354.05,-256.049 1245.43,-244.692"/>
<polygon fill="grey" stroke="grey" points="1245.75,-241.207 1235.44,-243.651 1245.02,-248.169 1245.75,-241.207"/>
</g>
<!-- 30 -->
<g id="node31" class="node"><title>30</title>
<path fill="none" stroke="#d87d56" stroke-width="2" d="M835.219,-468C835.219,-468 764.719,-468 764.719,-468 758.719,-468 752.719,-462 752.719,-456 752.719,-456 752.719,-444 752.719,-444 752.719,-438 758.719,-432 764.719,-432 764.719,-432 835.219,-432 835.219,-432 841.219,-432 847.219,-438 847.219,-444 847.219,-444 847.219,-456 847.219,-456 847.219,-462 841.219,-468 835.219,-468"/>
<text text-anchor="middle" x="799.969" y="-453" font-family="sans" font-size="10.00">trim_and_trinity</text>
<text text-anchor="middle" x="799.969" y="-442" font-family="sans" font-size="10.00">sample: Mac056</text>
</g>
<!-- 30&#45;&gt;5 -->
<g id="edge32" class="edge"><title>30&#45;&gt;5</title>
<path fill="none" stroke="grey" stroke-width="2" d="M847.434,-443.899C954.109,-432.399 1207.51,-404.867 1266.67,-395.334"/>
<polygon fill="grey" stroke="grey" points="1267.41,-398.756 1276.61,-393.494 1266.14,-391.872 1267.41,-398.756"/>
</g>
<!-- 53 -->
<g id="node54" class="node"><title>53</title>
<path fill="none" stroke="#8fd856" stroke-width="2" d="M814.969,-396C814.969,-396 784.969,-396 784.969,-396 778.969,-396 772.969,-390 772.969,-384 772.969,-384 772.969,-372 772.969,-372 772.969,-366 778.969,-360 784.969,-360 784.969,-360 814.969,-360 814.969,-360 820.969,-360 826.969,-366 826.969,-372 826.969,-372 826.969,-384 826.969,-384 826.969,-390 820.969,-396 814.969,-396"/>
<text text-anchor="middle" x="799.969" y="-375.5" font-family="sans" font-size="10.00">busco</text>
</g>
<!-- 30&#45;&gt;53 -->
<g id="edge94" class="edge"><title>30&#45;&gt;53</title>
<path fill="none" stroke="grey" stroke-width="2" d="M799.969,-431.697C799.969,-423.983 799.969,-414.712 799.969,-406.112"/>
<polygon fill="grey" stroke="grey" points="803.469,-406.104 799.969,-396.104 796.469,-406.104 803.469,-406.104"/>
</g>
<!-- 60 -->
<g id="node61" class="node"><title>60</title>
<path fill="none" stroke="#d8cb56" stroke-width="2" d="M742.969,-396C742.969,-396 684.969,-396 684.969,-396 678.969,-396 672.969,-390 672.969,-384 672.969,-384 672.969,-372 672.969,-372 672.969,-366 678.969,-360 684.969,-360 684.969,-360 742.969,-360 742.969,-360 748.969,-360 754.969,-366 754.969,-372 754.969,-372 754.969,-384 754.969,-384 754.969,-390 748.969,-396 742.969,-396"/>
<text text-anchor="middle" x="713.969" y="-375.5" font-family="sans" font-size="10.00">run_transrate</text>
</g>
<!-- 30&#45;&gt;60 -->
<g id="edge101" class="edge"><title>30&#45;&gt;60</title>
<path fill="none" stroke="grey" stroke-width="2" d="M778.71,-431.697C767.879,-422.881 754.551,-412.032 742.808,-402.474"/>
<polygon fill="grey" stroke="grey" points="744.948,-399.703 734.983,-396.104 740.529,-405.132 744.948,-399.703"/>
</g>
<!-- 31 -->
<g id="node32" class="node"><title>31</title>
<path fill="none" stroke="#d87d56" stroke-width="2" d="M1827.97,-468C1827.97,-468 1759.97,-468 1759.97,-468 1753.97,-468 1747.97,-462 1747.97,-456 1747.97,-456 1747.97,-444 1747.97,-444 1747.97,-438 1753.97,-432 1759.97,-432 1759.97,-432 1827.97,-432 1827.97,-432 1833.97,-432 1839.97,-438 1839.97,-444 1839.97,-444 1839.97,-456 1839.97,-456 1839.97,-462 1833.97,-468 1827.97,-468"/>
<text text-anchor="middle" x="1793.97" y="-453" font-family="sans" font-size="10.00">trim_and_trinity</text>
<text text-anchor="middle" x="1793.97" y="-442" font-family="sans" font-size="10.00">sample: Macdis</text>
</g>
<!-- 31&#45;&gt;5 -->
<g id="edge33" class="edge"><title>31&#45;&gt;5</title>
<path fill="none" stroke="grey" stroke-width="2" d="M1747.79,-443.625C1674.51,-434.895 1527.16,-416.532 1402.97,-396 1390.75,-393.98 1377.62,-391.55 1365.35,-389.168"/>
<polygon fill="grey" stroke="grey" points="1365.78,-385.685 1355.29,-387.188 1364.43,-392.553 1365.78,-385.685"/>
</g>
<!-- 42 -->
<g id="node43" class="node"><title>42</title>
<path fill="none" stroke="#8fd856" stroke-width="2" d="M1955.97,-396C1955.97,-396 1925.97,-396 1925.97,-396 1919.97,-396 1913.97,-390 1913.97,-384 1913.97,-384 1913.97,-372 1913.97,-372 1913.97,-366 1919.97,-360 1925.97,-360 1925.97,-360 1955.97,-360 1955.97,-360 1961.97,-360 1967.97,-366 1967.97,-372 1967.97,-372 1967.97,-384 1967.97,-384 1967.97,-390 1961.97,-396 1955.97,-396"/>
<text text-anchor="middle" x="1940.97" y="-375.5" font-family="sans" font-size="10.00">busco</text>
</g>
<!-- 31&#45;&gt;42 -->
<g id="edge83" class="edge"><title>31&#45;&gt;42</title>
<path fill="none" stroke="grey" stroke-width="2" d="M1829.93,-431.876C1852.54,-421.11 1881.63,-407.258 1904.36,-396.433"/>
<polygon fill="grey" stroke="grey" points="1906.15,-399.457 1913.67,-391.997 1903.14,-393.137 1906.15,-399.457"/>
</g>
<!-- 49 -->
<g id="node50" class="node"><title>49</title>
<path fill="none" stroke="#d8cb56" stroke-width="2" d="M1822.97,-396C1822.97,-396 1764.97,-396 1764.97,-396 1758.97,-396 1752.97,-390 1752.97,-384 1752.97,-384 1752.97,-372 1752.97,-372 1752.97,-366 1758.97,-360 1764.97,-360 1764.97,-360 1822.97,-360 1822.97,-360 1828.97,-360 1834.97,-366 1834.97,-372 1834.97,-372 1834.97,-384 1834.97,-384 1834.97,-390 1828.97,-396 1822.97,-396"/>
<text text-anchor="middle" x="1793.97" y="-375.5" font-family="sans" font-size="10.00">run_transrate</text>
</g>
<!-- 31&#45;&gt;49 -->
<g id="edge90" class="edge"><title>31&#45;&gt;49</title>
<path fill="none" stroke="grey" stroke-width="2" d="M1793.97,-431.697C1793.97,-423.983 1793.97,-414.712 1793.97,-406.112"/>
<polygon fill="grey" stroke="grey" points="1797.47,-406.104 1793.97,-396.104 1790.47,-406.104 1797.47,-406.104"/>
</g>
<!-- 32 -->
<g id="node33" class="node"><title>32</title>
<path fill="none" stroke="#d87d56" stroke-width="2" d="M2079.22,-468C2079.22,-468 2008.72,-468 2008.72,-468 2002.72,-468 1996.72,-462 1996.72,-456 1996.72,-456 1996.72,-444 1996.72,-444 1996.72,-438 2002.72,-432 2008.72,-432 2008.72,-432 2079.22,-432 2079.22,-432 2085.22,-432 2091.22,-438 2091.22,-444 2091.22,-444 2091.22,-456 2091.22,-456 2091.22,-462 2085.22,-468 2079.22,-468"/>
<text text-anchor="middle" x="2043.97" y="-453" font-family="sans" font-size="10.00">trim_and_trinity</text>
<text text-anchor="middle" x="2043.97" y="-442" font-family="sans" font-size="10.00">sample: Macpoz</text>
</g>
<!-- 32&#45;&gt;5 -->
<g id="edge34" class="edge"><title>32&#45;&gt;5</title>
<path fill="none" stroke="grey" stroke-width="2" d="M1996.69,-444.793C1957.21,-441.3 1899.43,-436.236 1848.97,-432 1650.8,-415.364 1599.98,-423.112 1402.97,-396 1390.7,-394.312 1377.55,-392.005 1365.28,-389.636"/>
<polygon fill="grey" stroke="grey" points="1365.71,-386.153 1355.22,-387.643 1364.35,-393.02 1365.71,-386.153"/>
</g>
<!-- 51 -->
<g id="node52" class="node"><title>51</title>
<path fill="none" stroke="#8fd856" stroke-width="2" d="M2058.97,-396C2058.97,-396 2028.97,-396 2028.97,-396 2022.97,-396 2016.97,-390 2016.97,-384 2016.97,-384 2016.97,-372 2016.97,-372 2016.97,-366 2022.97,-360 2028.97,-360 2028.97,-360 2058.97,-360 2058.97,-360 2064.97,-360 2070.97,-366 2070.97,-372 2070.97,-372 2070.97,-384 2070.97,-384 2070.97,-390 2064.97,-396 2058.97,-396"/>
<text text-anchor="middle" x="2043.97" y="-375.5" font-family="sans" font-size="10.00">busco</text>
</g>
<!-- 32&#45;&gt;51 -->
<g id="edge92" class="edge"><title>32&#45;&gt;51</title>
<path fill="none" stroke="grey" stroke-width="2" d="M2043.97,-431.697C2043.97,-423.983 2043.97,-414.712 2043.97,-406.112"/>
<polygon fill="grey" stroke="grey" points="2047.47,-406.104 2043.97,-396.104 2040.47,-406.104 2047.47,-406.104"/>
</g>
<!-- 54 -->
<g id="node55" class="node"><title>54</title>
<path fill="none" stroke="#d8cb56" stroke-width="2" d="M2158.97,-396C2158.97,-396 2100.97,-396 2100.97,-396 2094.97,-396 2088.97,-390 2088.97,-384 2088.97,-384 2088.97,-372 2088.97,-372 2088.97,-366 2094.97,-360 2100.97,-360 2100.97,-360 2158.97,-360 2158.97,-360 2164.97,-360 2170.97,-366 2170.97,-372 2170.97,-372 2170.97,-384 2170.97,-384 2170.97,-390 2164.97,-396 2158.97,-396"/>
<text text-anchor="middle" x="2129.97" y="-375.5" font-family="sans" font-size="10.00">run_transrate</text>
</g>
<!-- 32&#45;&gt;54 -->
<g id="edge95" class="edge"><title>32&#45;&gt;54</title>
<path fill="none" stroke="grey" stroke-width="2" d="M2065.23,-431.697C2076.06,-422.881 2089.39,-412.032 2101.13,-402.474"/>
<polygon fill="grey" stroke="grey" points="2103.41,-405.132 2108.95,-396.104 2098.99,-399.703 2103.41,-405.132"/>
</g>
<!-- 33 -->
<g id="node34" class="node"><title>33</title>
<path fill="none" stroke="#d87d56" stroke-width="2" d="M190.219,-468C190.219,-468 119.719,-468 119.719,-468 113.719,-468 107.719,-462 107.719,-456 107.719,-456 107.719,-444 107.719,-444 107.719,-438 113.719,-432 119.719,-432 119.719,-432 190.219,-432 190.219,-432 196.219,-432 202.219,-438 202.219,-444 202.219,-444 202.219,-456 202.219,-456 202.219,-462 196.219,-468 190.219,-468"/>
<text text-anchor="middle" x="154.969" y="-453" font-family="sans" font-size="10.00">trim_and_trinity</text>
<text text-anchor="middle" x="154.969" y="-442" font-family="sans" font-size="10.00">sample: Mac054</text>
</g>
<!-- 33&#45;&gt;5 -->
<g id="edge35" class="edge"><title>33&#45;&gt;5</title>
<path fill="none" stroke="grey" stroke-width="2" d="M202.649,-445.113C250.107,-441.347 325.034,-435.681 389.969,-432 581.571,-421.14 1059.6,-431.994 1266.7,-395.575"/>
<polygon fill="grey" stroke="grey" points="1267.46,-398.996 1276.66,-393.747 1266.19,-392.111 1267.46,-398.996"/>
</g>
<!-- 41 -->
<g id="node42" class="node"><title>41</title>
<path fill="none" stroke="#8fd856" stroke-width="2" d="M55.9686,-396C55.9686,-396 25.9686,-396 25.9686,-396 19.9686,-396 13.9686,-390 13.9686,-384 13.9686,-384 13.9686,-372 13.9686,-372 13.9686,-366 19.9686,-360 25.9686,-360 25.9686,-360 55.9686,-360 55.9686,-360 61.9686,-360 67.9686,-366 67.9686,-372 67.9686,-372 67.9686,-384 67.9686,-384 67.9686,-390 61.9686,-396 55.9686,-396"/>
<text text-anchor="middle" x="40.9686" y="-375.5" font-family="sans" font-size="10.00">busco</text>
</g>
<!-- 33&#45;&gt;41 -->
<g id="edge82" class="edge"><title>33&#45;&gt;41</title>
<path fill="none" stroke="grey" stroke-width="2" d="M127.081,-431.876C111.953,-422.587 93.0853,-411.001 76.8699,-401.045"/>
<polygon fill="grey" stroke="grey" points="78.528,-397.956 68.1749,-395.706 74.8652,-403.921 78.528,-397.956"/>
</g>
<!-- 55 -->
<g id="node56" class="node"><title>55</title>
<path fill="none" stroke="#d8cb56" stroke-width="2" d="M183.969,-396C183.969,-396 125.969,-396 125.969,-396 119.969,-396 113.969,-390 113.969,-384 113.969,-384 113.969,-372 113.969,-372 113.969,-366 119.969,-360 125.969,-360 125.969,-360 183.969,-360 183.969,-360 189.969,-360 195.969,-366 195.969,-372 195.969,-372 195.969,-384 195.969,-384 195.969,-390 189.969,-396 183.969,-396"/>
<text text-anchor="middle" x="154.969" y="-375.5" font-family="sans" font-size="10.00">run_transrate</text>
</g>
<!-- 33&#45;&gt;55 -->
<g id="edge96" class="edge"><title>33&#45;&gt;55</title>
<path fill="none" stroke="grey" stroke-width="2" d="M154.969,-431.697C154.969,-423.983 154.969,-414.712 154.969,-406.112"/>
<polygon fill="grey" stroke="grey" points="158.469,-406.104 154.969,-396.104 151.469,-406.104 158.469,-406.104"/>
</g>
<!-- 34 -->
<g id="node35" class="node"><title>34</title>
<path fill="none" stroke="#d87d56" stroke-width="2" d="M478.969,-468C478.969,-468 410.969,-468 410.969,-468 404.969,-468 398.969,-462 398.969,-456 398.969,-456 398.969,-444 398.969,-444 398.969,-438 404.969,-432 410.969,-432 410.969,-432 478.969,-432 478.969,-432 484.969,-432 490.969,-438 490.969,-444 490.969,-444 490.969,-456 490.969,-456 490.969,-462 484.969,-468 478.969,-468"/>
<text text-anchor="middle" x="444.969" y="-453" font-family="sans" font-size="10.00">trim_and_trinity</text>
<text text-anchor="middle" x="444.969" y="-442" font-family="sans" font-size="10.00">sample: Macaxi</text>
</g>
<!-- 34&#45;&gt;5 -->
<g id="edge36" class="edge"><title>34&#45;&gt;5</title>
<path fill="none" stroke="grey" stroke-width="2" d="M491.113,-446.37C651.03,-437.211 1176.21,-406.761 1266.56,-395.225"/>
<polygon fill="grey" stroke="grey" points="1267.3,-398.653 1276.64,-393.665 1266.23,-391.736 1267.3,-398.653"/>
</g>
<!-- 38 -->
<g id="node39" class="node"><title>38</title>
<path fill="none" stroke="#8fd856" stroke-width="2" d="M313.969,-396C313.969,-396 283.969,-396 283.969,-396 277.969,-396 271.969,-390 271.969,-384 271.969,-384 271.969,-372 271.969,-372 271.969,-366 277.969,-360 283.969,-360 283.969,-360 313.969,-360 313.969,-360 319.969,-360 325.969,-366 325.969,-372 325.969,-372 325.969,-384 325.969,-384 325.969,-390 319.969,-396 313.969,-396"/>
<text text-anchor="middle" x="298.969" y="-375.5" font-family="sans" font-size="10.00">busco</text>
</g>
<!-- 34&#45;&gt;38 -->
<g id="edge79" class="edge"><title>34&#45;&gt;38</title>
<path fill="none" stroke="grey" stroke-width="2" d="M409.253,-431.876C386.797,-421.11 357.907,-407.258 335.33,-396.433"/>
<polygon fill="grey" stroke="grey" points="336.608,-393.165 326.077,-391.997 333.581,-399.477 336.608,-393.165"/>
</g>
<!-- 57 -->
<g id="node58" class="node"><title>57</title>
<path fill="none" stroke="#d8cb56" stroke-width="2" d="M473.969,-396C473.969,-396 415.969,-396 415.969,-396 409.969,-396 403.969,-390 403.969,-384 403.969,-384 403.969,-372 403.969,-372 403.969,-366 409.969,-360 415.969,-360 415.969,-360 473.969,-360 473.969,-360 479.969,-360 485.969,-366 485.969,-372 485.969,-372 485.969,-384 485.969,-384 485.969,-390 479.969,-396 473.969,-396"/>
<text text-anchor="middle" x="444.969" y="-375.5" font-family="sans" font-size="10.00">run_transrate</text>
</g>
<!-- 34&#45;&gt;57 -->
<g id="edge98" class="edge"><title>34&#45;&gt;57</title>
<path fill="none" stroke="grey" stroke-width="2" d="M444.969,-431.697C444.969,-423.983 444.969,-414.712 444.969,-406.112"/>
<polygon fill="grey" stroke="grey" points="448.469,-406.104 444.969,-396.104 441.469,-406.104 448.469,-406.104"/>
</g>
<!-- 35 -->
<g id="node36" class="node"><title>35</title>
<path fill="none" stroke="#d87d56" stroke-width="2" d="M1059.97,-468C1059.97,-468 985.969,-468 985.969,-468 979.969,-468 973.969,-462 973.969,-456 973.969,-456 973.969,-444 973.969,-444 973.969,-438 979.969,-432 985.969,-432 985.969,-432 1059.97,-432 1059.97,-432 1065.97,-432 1071.97,-438 1071.97,-444 1071.97,-444 1071.97,-456 1071.97,-456 1071.97,-462 1065.97,-468 1059.97,-468"/>
<text text-anchor="middle" x="1022.97" y="-453" font-family="sans" font-size="10.00">trim_and_trinity</text>
<text text-anchor="middle" x="1022.97" y="-442" font-family="sans" font-size="10.00">sample: Macmys</text>
</g>
<!-- 35&#45;&gt;5 -->
<g id="edge37" class="edge"><title>35&#45;&gt;5</title>
<path fill="none" stroke="grey" stroke-width="2" d="M1072,-440.146C1119.45,-431.177 1193.49,-416.126 1266.67,-395.899"/>
<polygon fill="grey" stroke="grey" points="1267.83,-399.208 1276.52,-393.143 1265.94,-392.467 1267.83,-399.208"/>
</g>
<!-- 56 -->
<g id="node57" class="node"><title>56</title>
<path fill="none" stroke="#d8cb56" stroke-width="2" d="M1051.97,-396C1051.97,-396 993.969,-396 993.969,-396 987.969,-396 981.969,-390 981.969,-384 981.969,-384 981.969,-372 981.969,-372 981.969,-366 987.969,-360 993.969,-360 993.969,-360 1051.97,-360 1051.97,-360 1057.97,-360 1063.97,-366 1063.97,-372 1063.97,-372 1063.97,-384 1063.97,-384 1063.97,-390 1057.97,-396 1051.97,-396"/>
<text text-anchor="middle" x="1022.97" y="-375.5" font-family="sans" font-size="10.00">run_transrate</text>
</g>
<!-- 35&#45;&gt;56 -->
<g id="edge97" class="edge"><title>35&#45;&gt;56</title>
<path fill="none" stroke="grey" stroke-width="2" d="M1022.97,-431.697C1022.97,-423.983 1022.97,-414.712 1022.97,-406.112"/>
<polygon fill="grey" stroke="grey" points="1026.47,-406.104 1022.97,-396.104 1019.47,-406.104 1026.47,-406.104"/>
</g>
<!-- 58 -->
<g id="node59" class="node"><title>58</title>
<path fill="none" stroke="#8fd856" stroke-width="2" d="M908.969,-396C908.969,-396 878.969,-396 878.969,-396 872.969,-396 866.969,-390 866.969,-384 866.969,-384 866.969,-372 866.969,-372 866.969,-366 872.969,-360 878.969,-360 878.969,-360 908.969,-360 908.969,-360 914.969,-360 920.969,-366 920.969,-372 920.969,-372 920.969,-384 920.969,-384 920.969,-390 914.969,-396 908.969,-396"/>
<text text-anchor="middle" x="893.969" y="-375.5" font-family="sans" font-size="10.00">busco</text>
</g>
<!-- 35&#45;&gt;58 -->
<g id="edge99" class="edge"><title>35&#45;&gt;58</title>
<path fill="none" stroke="grey" stroke-width="2" d="M991.412,-431.876C972.867,-421.813 949.355,-409.055 930.073,-398.592"/>
<polygon fill="grey" stroke="grey" points="931.726,-395.506 921.267,-393.813 928.387,-401.659 931.726,-395.506"/>
</g>
<!-- 36 -->
<g id="node37" class="node"><title>36</title>
<path fill="none" stroke="#d87d56" stroke-width="2" d="M1350.22,-468C1350.22,-468 1281.72,-468 1281.72,-468 1275.72,-468 1269.72,-462 1269.72,-456 1269.72,-456 1269.72,-444 1269.72,-444 1269.72,-438 1275.72,-432 1281.72,-432 1281.72,-432 1350.22,-432 1350.22,-432 1356.22,-432 1362.22,-438 1362.22,-444 1362.22,-444 1362.22,-456 1362.22,-456 1362.22,-462 1356.22,-468 1350.22,-468"/>
<text text-anchor="middle" x="1315.97" y="-453" font-family="sans" font-size="10.00">trim_and_trinity</text>
<text text-anchor="middle" x="1315.97" y="-442" font-family="sans" font-size="10.00">sample: Mactub</text>
</g>
<!-- 36&#45;&gt;5 -->
<g id="edge38" class="edge"><title>36&#45;&gt;5</title>
<path fill="none" stroke="grey" stroke-width="2" d="M1315.97,-431.697C1315.97,-423.983 1315.97,-414.712 1315.97,-406.112"/>
<polygon fill="grey" stroke="grey" points="1319.47,-406.104 1315.97,-396.104 1312.47,-406.104 1319.47,-406.104"/>
</g>
<!-- 46 -->
<g id="node47" class="node"><title>46</title>
<path fill="none" stroke="#d8cb56" stroke-width="2" d="M1245.97,-396C1245.97,-396 1187.97,-396 1187.97,-396 1181.97,-396 1175.97,-390 1175.97,-384 1175.97,-384 1175.97,-372 1175.97,-372 1175.97,-366 1181.97,-360 1187.97,-360 1187.97,-360 1245.97,-360 1245.97,-360 1251.97,-360 1257.97,-366 1257.97,-372 1257.97,-372 1257.97,-384 1257.97,-384 1257.97,-390 1251.97,-396 1245.97,-396"/>
<text text-anchor="middle" x="1216.97" y="-375.5" font-family="sans" font-size="10.00">run_transrate</text>
</g>
<!-- 36&#45;&gt;46 -->
<g id="edge87" class="edge"><title>36&#45;&gt;46</title>
<path fill="none" stroke="grey" stroke-width="2" d="M1291.75,-431.876C1279.05,-422.893 1263.3,-411.763 1249.55,-402.034"/>
<polygon fill="grey" stroke="grey" points="1251.47,-399.105 1241.28,-396.19 1247.42,-404.821 1251.47,-399.105"/>
</g>
<!-- 48 -->
<g id="node49" class="node"><title>48</title>
<path fill="none" stroke="#8fd856" stroke-width="2" d="M1398.97,-324C1398.97,-324 1368.97,-324 1368.97,-324 1362.97,-324 1356.97,-318 1356.97,-312 1356.97,-312 1356.97,-300 1356.97,-300 1356.97,-294 1362.97,-288 1368.97,-288 1368.97,-288 1398.97,-288 1398.97,-288 1404.97,-288 1410.97,-294 1410.97,-300 1410.97,-300 1410.97,-312 1410.97,-312 1410.97,-318 1404.97,-324 1398.97,-324"/>
<text text-anchor="middle" x="1383.97" y="-303.5" font-family="sans" font-size="10.00">busco</text>
</g>
<!-- 36&#45;&gt;48 -->
<g id="edge89" class="edge"><title>36&#45;&gt;48</title>
<path fill="none" stroke="grey" stroke-width="2" d="M1335.92,-431.689C1345.77,-422.111 1357,-409.444 1363.97,-396 1373.97,-376.727 1378.99,-352.573 1381.5,-334.292"/>
<polygon fill="grey" stroke="grey" points="1384.99,-334.636 1382.71,-324.289 1378.04,-333.797 1384.99,-334.636"/>
</g>
<!-- 37 -->
<g id="node38" class="node"><title>37</title>
<path fill="none" stroke="#d87d56" stroke-width="2" d="M1472.97,-468C1472.97,-468 1404.97,-468 1404.97,-468 1398.97,-468 1392.97,-462 1392.97,-456 1392.97,-456 1392.97,-444 1392.97,-444 1392.97,-438 1398.97,-432 1404.97,-432 1404.97,-432 1472.97,-432 1472.97,-432 1478.97,-432 1484.97,-438 1484.97,-444 1484.97,-444 1484.97,-456 1484.97,-456 1484.97,-462 1478.97,-468 1472.97,-468"/>
<text text-anchor="middle" x="1438.97" y="-453" font-family="sans" font-size="10.00">trim_and_trinity</text>
<text text-anchor="middle" x="1438.97" y="-442" font-family="sans" font-size="10.00">sample: Maclig</text>
</g>
<!-- 37&#45;&gt;5 -->
<g id="edge39" class="edge"><title>37&#45;&gt;5</title>
<path fill="none" stroke="grey" stroke-width="2" d="M1408.88,-431.876C1392.65,-422.639 1372.43,-411.131 1355,-401.212"/>
<polygon fill="grey" stroke="grey" points="1356.6,-398.094 1346.17,-396.19 1353.13,-404.178 1356.6,-398.094"/>
</g>
<!-- 45 -->
<g id="node46" class="node"><title>45</title>
<path fill="none" stroke="#8fd856" stroke-width="2" d="M1453.97,-396C1453.97,-396 1423.97,-396 1423.97,-396 1417.97,-396 1411.97,-390 1411.97,-384 1411.97,-384 1411.97,-372 1411.97,-372 1411.97,-366 1417.97,-360 1423.97,-360 1423.97,-360 1453.97,-360 1453.97,-360 1459.97,-360 1465.97,-366 1465.97,-372 1465.97,-372 1465.97,-384 1465.97,-384 1465.97,-390 1459.97,-396 1453.97,-396"/>
<text text-anchor="middle" x="1438.97" y="-375.5" font-family="sans" font-size="10.00">busco</text>
</g>
<!-- 37&#45;&gt;45 -->
<g id="edge86" class="edge"><title>37&#45;&gt;45</title>
<path fill="none" stroke="grey" stroke-width="2" d="M1438.97,-431.697C1438.97,-423.983 1438.97,-414.712 1438.97,-406.112"/>
<polygon fill="grey" stroke="grey" points="1442.47,-406.104 1438.97,-396.104 1435.47,-406.104 1442.47,-406.104"/>
</g>
<!-- 61 -->
<g id="node62" class="node"><title>61</title>
<path fill="none" stroke="#d8cb56" stroke-width="2" d="M1553.97,-396C1553.97,-396 1495.97,-396 1495.97,-396 1489.97,-396 1483.97,-390 1483.97,-384 1483.97,-384 1483.97,-372 1483.97,-372 1483.97,-366 1489.97,-360 1495.97,-360 1495.97,-360 1553.97,-360 1553.97,-360 1559.97,-360 1565.97,-366 1565.97,-372 1565.97,-372 1565.97,-384 1565.97,-384 1565.97,-390 1559.97,-396 1553.97,-396"/>
<text text-anchor="middle" x="1524.97" y="-375.5" font-family="sans" font-size="10.00">run_transrate</text>
</g>
<!-- 37&#45;&gt;61 -->
<g id="edge102" class="edge"><title>37&#45;&gt;61</title>
<path fill="none" stroke="grey" stroke-width="2" d="M1460.23,-431.697C1471.06,-422.881 1484.39,-412.032 1496.13,-402.474"/>
<polygon fill="grey" stroke="grey" points="1498.41,-405.132 1503.95,-396.104 1493.99,-399.703 1498.41,-405.132"/>
</g>
<!-- 38&#45;&gt;14 -->
<g id="edge55" class="edge"><title>38&#45;&gt;14</title>
<path fill="none" stroke="grey" stroke-width="2" d="M291.484,-359.715C284.61,-341.103 277.015,-311.064 287.969,-288 293.538,-276.273 303.113,-266.285 313.228,-258.248"/>
<polygon fill="grey" stroke="grey" points="315.422,-260.979 321.389,-252.224 311.265,-255.347 315.422,-260.979"/>
</g>
<!-- 39 -->
<g id="node40" class="node"><title>39</title>
<path fill="none" stroke="#56d8b9" stroke-width="2" d="M396.969,-324C396.969,-324 308.969,-324 308.969,-324 302.969,-324 296.969,-318 296.969,-312 296.969,-312 296.969,-300 296.969,-300 296.969,-294 302.969,-288 308.969,-288 308.969,-288 396.969,-288 396.969,-288 402.969,-288 408.969,-294 408.969,-300 408.969,-300 408.969,-312 408.969,-312 408.969,-318 402.969,-324 396.969,-324"/>
<text text-anchor="middle" x="352.969" y="-303.5" font-family="sans" font-size="10.00">busco_on_transrate</text>
</g>
<!-- 39&#45;&gt;14 -->
<g id="edge56" class="edge"><title>39&#45;&gt;14</title>
<path fill="none" stroke="grey" stroke-width="2" d="M352.969,-287.697C352.969,-279.983 352.969,-270.712 352.969,-262.112"/>
<polygon fill="grey" stroke="grey" points="356.469,-262.104 352.969,-252.104 349.469,-262.104 356.469,-262.104"/>
</g>
<!-- 40 -->
<g id="node41" class="node"><title>40</title>
<path fill="none" stroke="#56d8b9" stroke-width="2" d="M112.969,-324C112.969,-324 24.9686,-324 24.9686,-324 18.9686,-324 12.9686,-318 12.9686,-312 12.9686,-312 12.9686,-300 12.9686,-300 12.9686,-294 18.9686,-288 24.9686,-288 24.9686,-288 112.969,-288 112.969,-288 118.969,-288 124.969,-294 124.969,-300 124.969,-300 124.969,-312 124.969,-312 124.969,-318 118.969,-324 112.969,-324"/>
<text text-anchor="middle" x="68.9686" y="-303.5" font-family="sans" font-size="10.00">busco_on_transrate</text>
</g>
<!-- 40&#45;&gt;15 -->
<g id="edge57" class="edge"><title>40&#45;&gt;15</title>
<path fill="none" stroke="grey" stroke-width="2" d="M68.9686,-287.697C68.9686,-279.983 68.9686,-270.712 68.9686,-262.112"/>
<polygon fill="grey" stroke="grey" points="72.4687,-262.104 68.9686,-252.104 65.4687,-262.104 72.4687,-262.104"/>
</g>
<!-- 41&#45;&gt;15 -->
<g id="edge58" class="edge"><title>41&#45;&gt;15</title>
<path fill="none" stroke="grey" stroke-width="2" d="M24.9626,-359.718C10.2452,-341.623 -7.66047,-312.487 3.96862,-288 9.53809,-276.273 19.1131,-266.285 29.2278,-258.248"/>
<polygon fill="grey" stroke="grey" points="31.4215,-260.979 37.3891,-252.224 27.2647,-255.347 31.4215,-260.979"/>
</g>
<!-- 42&#45;&gt;16 -->
<g id="edge59" class="edge"><title>42&#45;&gt;16</title>
<path fill="none" stroke="grey" stroke-width="2" d="M1962.24,-359.701C1972.08,-350.305 1982.73,-337.798 1987.97,-324 1993.65,-309.041 1994.83,-302.453 1987.97,-288 1982.4,-276.273 1972.82,-266.285 1962.71,-258.248"/>
<polygon fill="grey" stroke="grey" points="1964.67,-255.347 1954.55,-252.224 1960.52,-260.979 1964.67,-255.347"/>
</g>
<!-- 43 -->
<g id="node44" class="node"><title>43</title>
<path fill="none" stroke="#56d8b9" stroke-width="2" d="M1966.97,-324C1966.97,-324 1878.97,-324 1878.97,-324 1872.97,-324 1866.97,-318 1866.97,-312 1866.97,-312 1866.97,-300 1866.97,-300 1866.97,-294 1872.97,-288 1878.97,-288 1878.97,-288 1966.97,-288 1966.97,-288 1972.97,-288 1978.97,-294 1978.97,-300 1978.97,-300 1978.97,-312 1978.97,-312 1978.97,-318 1972.97,-324 1966.97,-324"/>
<text text-anchor="middle" x="1922.97" y="-303.5" font-family="sans" font-size="10.00">busco_on_transrate</text>
</g>
<!-- 43&#45;&gt;16 -->
<g id="edge60" class="edge"><title>43&#45;&gt;16</title>
<path fill="none" stroke="grey" stroke-width="2" d="M1922.97,-287.697C1922.97,-279.983 1922.97,-270.712 1922.97,-262.112"/>
<polygon fill="grey" stroke="grey" points="1926.47,-262.104 1922.97,-252.104 1919.47,-262.104 1926.47,-262.104"/>
</g>
<!-- 44 -->
<g id="node45" class="node"><title>44</title>
<path fill="none" stroke="#56d8b9" stroke-width="2" d="M1566.97,-324C1566.97,-324 1478.97,-324 1478.97,-324 1472.97,-324 1466.97,-318 1466.97,-312 1466.97,-312 1466.97,-300 1466.97,-300 1466.97,-294 1472.97,-288 1478.97,-288 1478.97,-288 1566.97,-288 1566.97,-288 1572.97,-288 1578.97,-294 1578.97,-300 1578.97,-300 1578.97,-312 1578.97,-312 1578.97,-318 1572.97,-324 1566.97,-324"/>
<text text-anchor="middle" x="1522.97" y="-303.5" font-family="sans" font-size="10.00">busco_on_transrate</text>
</g>
<!-- 44&#45;&gt;17 -->
<g id="edge61" class="edge"><title>44&#45;&gt;17</title>
<path fill="none" stroke="grey" stroke-width="2" d="M1510.11,-287.697C1503.94,-279.389 1496.43,-269.277 1489.64,-260.141"/>
<polygon fill="grey" stroke="grey" points="1492.45,-258.045 1483.67,-252.104 1486.83,-262.219 1492.45,-258.045"/>
</g>
<!-- 45&#45;&gt;17 -->
<g id="edge62" class="edge"><title>45&#45;&gt;17</title>
<path fill="none" stroke="grey" stroke-width="2" d="M1442.46,-359.904C1446.16,-341.961 1452.25,-312.948 1457.97,-288 1459.9,-279.559 1462.12,-270.389 1464.16,-262.087"/>
<polygon fill="grey" stroke="grey" points="1467.61,-262.703 1466.62,-252.155 1460.82,-261.018 1467.61,-262.703"/>
</g>
<!-- 46&#45;&gt;18 -->
<g id="edge63" class="edge"><title>46&#45;&gt;18</title>
<path fill="none" stroke="grey" stroke-width="2" d="M1202.88,-359.697C1196.05,-351.305 1187.71,-341.07 1180.21,-331.861"/>
<polygon fill="grey" stroke="grey" points="1182.92,-329.649 1173.9,-324.104 1177.5,-334.069 1182.92,-329.649"/>
</g>
<!-- 47 -->
<g id="node48" class="node"><title>47</title>
<path fill="none" stroke="#56d8b9" stroke-width="2" d="M1326.97,-324C1326.97,-324 1238.97,-324 1238.97,-324 1232.97,-324 1226.97,-318 1226.97,-312 1226.97,-312 1226.97,-300 1226.97,-300 1226.97,-294 1232.97,-288 1238.97,-288 1238.97,-288 1326.97,-288 1326.97,-288 1332.97,-288 1338.97,-294 1338.97,-300 1338.97,-300 1338.97,-312 1338.97,-312 1338.97,-318 1332.97,-324 1326.97,-324"/>
<text text-anchor="middle" x="1282.97" y="-303.5" font-family="sans" font-size="10.00">busco_on_transrate</text>
</g>
<!-- 46&#45;&gt;47 -->
<g id="edge88" class="edge"><title>46&#45;&gt;47</title>
<path fill="none" stroke="grey" stroke-width="2" d="M1233.28,-359.697C1241.28,-351.22 1251.04,-340.864 1259.79,-331.583"/>
<polygon fill="grey" stroke="grey" points="1262.53,-333.781 1266.84,-324.104 1257.43,-328.979 1262.53,-333.781"/>
</g>
<!-- 47&#45;&gt;19 -->
<g id="edge64" class="edge"><title>47&#45;&gt;19</title>
<path fill="none" stroke="grey" stroke-width="2" d="M1304.72,-287.697C1315.8,-278.881 1329.44,-268.032 1341.46,-258.474"/>
<polygon fill="grey" stroke="grey" points="1343.82,-261.069 1349.47,-252.104 1339.46,-255.59 1343.82,-261.069"/>
</g>
<!-- 48&#45;&gt;19 -->
<g id="edge65" class="edge"><title>48&#45;&gt;19</title>
<path fill="none" stroke="grey" stroke-width="2" d="M1380.76,-287.697C1379.32,-279.983 1377.6,-270.712 1376,-262.112"/>
<polygon fill="grey" stroke="grey" points="1379.41,-261.297 1374.15,-252.104 1372.53,-262.575 1379.41,-261.297"/>
</g>
<!-- 49&#45;&gt;20 -->
<g id="edge66" class="edge"><title>49&#45;&gt;20</title>
<path fill="none" stroke="grey" stroke-width="2" d="M1786.06,-359.697C1782.42,-351.728 1778.01,-342.1 1773.98,-333.264"/>
<polygon fill="grey" stroke="grey" points="1777.13,-331.744 1769.79,-324.104 1770.76,-334.654 1777.13,-331.744"/>
</g>
<!-- 49&#45;&gt;43 -->
<g id="edge84" class="edge"><title>49&#45;&gt;43</title>
<path fill="none" stroke="grey" stroke-width="2" d="M1825.53,-359.876C1842.63,-350.596 1863.95,-339.025 1882.29,-329.075"/>
<polygon fill="grey" stroke="grey" points="1884.17,-332.035 1891.29,-324.19 1880.83,-325.883 1884.17,-332.035"/>
</g>
<!-- 50 -->
<g id="node51" class="node"><title>50</title>
<path fill="none" stroke="#56d8b9" stroke-width="2" d="M2172.97,-324C2172.97,-324 2084.97,-324 2084.97,-324 2078.97,-324 2072.97,-318 2072.97,-312 2072.97,-312 2072.97,-300 2072.97,-300 2072.97,-294 2078.97,-288 2084.97,-288 2084.97,-288 2172.97,-288 2172.97,-288 2178.97,-288 2184.97,-294 2184.97,-300 2184.97,-300 2184.97,-312 2184.97,-312 2184.97,-318 2178.97,-324 2172.97,-324"/>
<text text-anchor="middle" x="2128.97" y="-303.5" font-family="sans" font-size="10.00">busco_on_transrate</text>
</g>
<!-- 50&#45;&gt;21 -->
<g id="edge67" class="edge"><title>50&#45;&gt;21</title>
<path fill="none" stroke="grey" stroke-width="2" d="M2108.2,-287.697C2097.73,-278.965 2084.86,-268.24 2073.47,-258.75"/>
<polygon fill="grey" stroke="grey" points="2075.42,-255.817 2065.49,-252.104 2070.94,-261.195 2075.42,-255.817"/>
</g>
<!-- 51&#45;&gt;21 -->
<g id="edge68" class="edge"><title>51&#45;&gt;21</title>
<path fill="none" stroke="grey" stroke-width="2" d="M2044.09,-359.871C2044.26,-335.67 2044.57,-291.211 2044.78,-262.393"/>
<polygon fill="grey" stroke="grey" points="2048.28,-262.214 2044.85,-252.189 2041.28,-262.164 2048.28,-262.214"/>
</g>
<!-- 52 -->
<g id="node53" class="node"><title>52</title>
<path fill="none" stroke="#56d8b9" stroke-width="2" d="M758.969,-324C758.969,-324 670.969,-324 670.969,-324 664.969,-324 658.969,-318 658.969,-312 658.969,-312 658.969,-300 658.969,-300 658.969,-294 664.969,-288 670.969,-288 670.969,-288 758.969,-288 758.969,-288 764.969,-288 770.969,-294 770.969,-300 770.969,-300 770.969,-312 770.969,-312 770.969,-318 764.969,-324 758.969,-324"/>
<text text-anchor="middle" x="714.969" y="-303.5" font-family="sans" font-size="10.00">busco_on_transrate</text>
</g>
<!-- 52&#45;&gt;22 -->
<g id="edge69" class="edge"><title>52&#45;&gt;22</title>
<path fill="none" stroke="grey" stroke-width="2" d="M735.733,-287.697C746.21,-278.965 759.08,-268.24 770.468,-258.75"/>
<polygon fill="grey" stroke="grey" points="773.002,-261.195 778.443,-252.104 768.521,-255.817 773.002,-261.195"/>
</g>
<!-- 53&#45;&gt;22 -->
<g id="edge70" class="edge"><title>53&#45;&gt;22</title>
<path fill="none" stroke="grey" stroke-width="2" d="M799.848,-359.871C799.678,-335.67 799.364,-291.211 799.162,-262.393"/>
<polygon fill="grey" stroke="grey" points="802.66,-262.164 799.09,-252.189 795.66,-262.214 802.66,-262.164"/>
</g>
<!-- 54&#45;&gt;23 -->
<g id="edge71" class="edge"><title>54&#45;&gt;23</title>
<path fill="none" stroke="grey" stroke-width="2" d="M2159.81,-359.876C2175.91,-350.639 2195.97,-339.131 2213.26,-329.212"/>
<polygon fill="grey" stroke="grey" points="2215.08,-332.202 2222.01,-324.19 2211.59,-326.131 2215.08,-332.202"/>
</g>
<!-- 54&#45;&gt;50 -->
<g id="edge91" class="edge"><title>54&#45;&gt;50</title>
<path fill="none" stroke="grey" stroke-width="2" d="M2129.72,-359.697C2129.61,-351.983 2129.48,-342.712 2129.36,-334.112"/>
<polygon fill="grey" stroke="grey" points="2132.86,-334.053 2129.21,-324.104 2125.86,-334.153 2132.86,-334.053"/>
</g>
<!-- 55&#45;&gt;24 -->
<g id="edge72" class="edge"><title>55&#45;&gt;24</title>
<path fill="none" stroke="grey" stroke-width="2" d="M164.115,-359.697C168.371,-351.644 173.524,-341.894 178.235,-332.982"/>
<polygon fill="grey" stroke="grey" points="181.349,-334.581 182.928,-324.104 175.16,-331.31 181.349,-334.581"/>
</g>
<!-- 55&#45;&gt;40 -->
<g id="edge81" class="edge"><title>55&#45;&gt;40</title>
<path fill="none" stroke="grey" stroke-width="2" d="M133.71,-359.697C122.879,-350.881 109.551,-340.032 97.8084,-330.474"/>
<polygon fill="grey" stroke="grey" points="99.9476,-327.703 89.9825,-324.104 95.5287,-333.132 99.9476,-327.703"/>
</g>
<!-- 56&#45;&gt;25 -->
<g id="edge73" class="edge"><title>56&#45;&gt;25</title>
<path fill="none" stroke="grey" stroke-width="2" d="M1028.16,-359.697C1030.5,-351.898 1033.32,-342.509 1035.92,-333.829"/>
<polygon fill="grey" stroke="grey" points="1039.32,-334.688 1038.84,-324.104 1032.61,-332.677 1039.32,-334.688"/>
</g>
<!-- 59 -->
<g id="node60" class="node"><title>59</title>
<path fill="none" stroke="#56d8b9" stroke-width="2" d="M964.969,-324C964.969,-324 876.969,-324 876.969,-324 870.969,-324 864.969,-318 864.969,-312 864.969,-312 864.969,-300 864.969,-300 864.969,-294 870.969,-288 876.969,-288 876.969,-288 964.969,-288 964.969,-288 970.969,-288 976.969,-294 976.969,-300 976.969,-300 976.969,-312 976.969,-312 976.969,-318 970.969,-324 964.969,-324"/>
<text text-anchor="middle" x="920.969" y="-303.5" font-family="sans" font-size="10.00">busco_on_transrate</text>
</g>
<!-- 56&#45;&gt;59 -->
<g id="edge100" class="edge"><title>56&#45;&gt;59</title>
<path fill="none" stroke="grey" stroke-width="2" d="M998.017,-359.876C984.927,-350.893 968.708,-339.763 954.533,-330.034"/>
<polygon fill="grey" stroke="grey" points="956.242,-326.962 946.017,-324.19 952.281,-332.734 956.242,-326.962"/>
</g>
<!-- 57&#45;&gt;26 -->
<g id="edge74" class="edge"><title>57&#45;&gt;26</title>
<path fill="none" stroke="grey" stroke-width="2" d="M452.632,-359.697C456.16,-351.728 460.425,-342.1 464.337,-333.264"/>
<polygon fill="grey" stroke="grey" points="467.545,-334.665 468.394,-324.104 461.144,-331.831 467.545,-334.665"/>
</g>
<!-- 57&#45;&gt;39 -->
<g id="edge80" class="edge"><title>57&#45;&gt;39</title>
<path fill="none" stroke="grey" stroke-width="2" d="M422.227,-359.697C410.529,-350.796 396.108,-339.823 383.459,-330.199"/>
<polygon fill="grey" stroke="grey" points="385.526,-327.374 375.449,-324.104 381.288,-332.945 385.526,-327.374"/>
</g>
<!-- 58&#45;&gt;27 -->
<g id="edge75" class="edge"><title>58&#45;&gt;27</title>
<path fill="none" stroke="grey" stroke-width="2" d="M877.638,-359.758C862.611,-341.695 844.293,-312.586 855.969,-288 861.538,-276.273 871.113,-266.285 881.228,-258.248"/>
<polygon fill="grey" stroke="grey" points="883.422,-260.979 889.389,-252.224 879.265,-255.347 883.422,-260.979"/>
</g>
<!-- 59&#45;&gt;27 -->
<g id="edge76" class="edge"><title>59&#45;&gt;27</title>
<path fill="none" stroke="grey" stroke-width="2" d="M920.969,-287.697C920.969,-279.983 920.969,-270.712 920.969,-262.112"/>
<polygon fill="grey" stroke="grey" points="924.469,-262.104 920.969,-252.104 917.469,-262.104 924.469,-262.104"/>
</g>
<!-- 60&#45;&gt;28 -->
<g id="edge77" class="edge"><title>60&#45;&gt;28</title>
<path fill="none" stroke="grey" stroke-width="2" d="M684.124,-359.876C668.025,-350.639 647.968,-339.131 630.68,-329.212"/>
<polygon fill="grey" stroke="grey" points="632.343,-326.131 621.928,-324.19 628.86,-332.202 632.343,-326.131"/>
</g>
<!-- 60&#45;&gt;52 -->
<g id="edge93" class="edge"><title>60&#45;&gt;52</title>
<path fill="none" stroke="grey" stroke-width="2" d="M714.216,-359.697C714.326,-351.983 714.458,-342.712 714.581,-334.112"/>
<polygon fill="grey" stroke="grey" points="718.081,-334.153 714.724,-324.104 711.082,-334.053 718.081,-334.153"/>
</g>
<!-- 61&#45;&gt;29 -->
<g id="edge78" class="edge"><title>61&#45;&gt;29</title>
<path fill="none" stroke="grey" stroke-width="2" d="M1554.57,-359.876C1570.54,-350.639 1590.43,-339.131 1607.57,-329.212"/>
<polygon fill="grey" stroke="grey" points="1609.35,-332.227 1616.25,-324.19 1605.85,-326.168 1609.35,-332.227"/>
</g>
<!-- 61&#45;&gt;44 -->
<g id="edge85" class="edge"><title>61&#45;&gt;44</title>
<path fill="none" stroke="grey" stroke-width="2" d="M1524.47,-359.697C1524.25,-351.983 1523.99,-342.712 1523.74,-334.112"/>
<polygon fill="grey" stroke="grey" points="1527.24,-334 1523.46,-324.104 1520.24,-334.2 1527.24,-334"/>
</g>
</g>
</svg>
